Coordinates
version=1
nRows=16
nColumns=34
inDegrees=no

Units are S.I. units (second, meters, Newtons, ...)
If the header above contains a line with 'inDegrees', this indicates whether rotational values are in degrees (yes) or radians (no).

endheader
time	pelvis_tilt	pelvis_list	pelvis_rotation	pelvis_tx	pelvis_ty	pelvis_tz	hip_flexion_r	hip_adduction_r	hip_rotation_r	knee_angle_r	ankle_angle_r	subtalar_angle_r	mtp_angle_r	hip_flexion_l	hip_adduction_l	hip_rotation_l	knee_angle_l	ankle_angle_l	subtalar_angle_l	mtp_angle_l	lumbar_extension	lumbar_bending	lumbar_rotation	arm_flex_r	arm_add_r	arm_rot_r	elbow_flex_r	pro_sup_r	arm_flex_l	arm_add_l	arm_rot_l	elbow_flex_l	pro_sup_l
30.0182	0.220863	0.272091	4.51567	0.7814	0.688246	0.0554169	1.33967	-0.796562	-0.265982	1.57632	0.432602	-0.109909	-0.130709	-0.155028	-0.383241	-0.698132	0.235032	0.513842	0.59321	-0.130709	0.108115	-0.117668	0.0351094	1.71951	-0.464407	0.0599706	0.59032	1.13037	-0.160496	-0.568557	0.488431	0.79822	2.09
30.0382	0.219428	0.270664	4.51566	0.781395	0.688351	0.0554656	1.33693	-0.795359	-0.266873	1.57631	0.432726	-0.111058	-0.130709	-0.15604	-0.385039	-0.698132	0.237801	0.515327	0.591124	-0.130709	0.107262	-0.117427	0.0352784	1.72025	-0.464418	0.0540614	0.587624	1.13389	-0.157	-0.567333	0.493581	0.794445	2.09
30.0582	0.217964	0.269212	4.51572	0.781484	0.688513	0.0554873	1.33408	-0.794238	-0.267819	1.57603	0.432643	-0.112259	-0.130709	-0.156878	-0.386875	-0.698132	0.240841	0.516876	0.589226	-0.130709	0.106301	-0.117145	0.0354461	1.72069	-0.464786	0.0493005	0.5854	1.13406	-0.153367	-0.565963	0.498808	0.790626	2.09
30.0782	0.216442	0.267705	4.51585	0.781665	0.688737	0.055485	1.33103	-0.793185	-0.268875	1.57548	0.432354	-0.113479	-0.130709	-0.157613	-0.388764	-0.698132	0.244112	0.518479	0.587514	-0.130709	0.1052	-0.11679	0.0356242	1.72094	-0.465351	0.0449906	0.583315	1.13305	-0.149655	-0.564495	0.503991	0.786789	2.09
30.0982	0.21484	0.266111	4.51602	0.781934	0.689025	0.0554635	1.32772	-0.792186	-0.270076	1.57464	0.431869	-0.114676	-0.130709	-0.158315	-0.390718	-0.698132	0.247594	0.52014	0.585965	-0.130709	0.103935	-0.11634	0.0358257	1.7211	-0.465977	0.0405931	0.581099	1.13245	-0.145929	-0.562985	0.509033	0.782958	2.09
30.1182	0.213146	0.264406	4.51621	0.782288	0.689372	0.0554282	1.32411	-0.791223	-0.27144	1.57353	0.431198	-0.115814	-0.130709	-0.15903	-0.392742	-0.698132	0.251295	0.521874	0.584532	-0.130709	0.102496	-0.115783	0.0360637	1.72127	-0.466575	0.0358106	0.578603	1.133	-0.142255	-0.561499	0.513868	0.779155	2.09
30.1382	0.211358	0.262581	4.51638	0.782719	0.689774	0.0553841	1.32021	-0.79028	-0.272966	1.57217	0.430356	-0.116871	-0.130709	-0.159777	-0.394844	-0.698132	0.255244	0.523707	0.58315	-0.130709	0.100891	-0.115119	0.0363471	1.72148	-0.467103	0.0305375	0.575778	1.13477	-0.138698	-0.560111	0.51847	0.775417	2.09
30.1582	0.209472	0.260647	4.5165	0.783224	0.690223	0.0553344	1.31603	-0.78933	-0.274643	1.57057	0.429353	-0.117849	-0.130709	-0.160542	-0.397036	-0.698132	0.259491	0.525668	0.581742	-0.130709	0.0991448	-0.114346	0.0366778	1.72177	-0.467543	0.0247908	0.57265	1.13755	-0.135312	-0.558887	0.522834	0.771779	2.09
30.1782	0.207487	0.258636	4.51657	0.783796	0.69071	0.0552799	1.31161	-0.788338	-0.276461	1.56876	0.428193	-0.118781	-0.130709	-0.161282	-0.399342	-0.698132	0.264095	0.527786	0.580231	-0.130709	0.0972952	-0.113461	0.03705	1.72218	-0.467903	0.0186649	0.569286	1.14102	-0.132135	-0.557883	0.526972	0.768269	2.09
30.1982	0.205392	0.25659	4.51658	0.784433	0.691229	0.0552188	1.30703	-0.787265	-0.278411	1.56675	0.426866	-0.119729	-0.130709	-0.161929	-0.401798	-0.698132	0.269121	0.530086	0.578548	-0.130709	0.0953847	-0.112449	0.0374501	1.72269	-0.468201	0.0122981	0.565768	1.14495	-0.129187	-0.557138	0.530908	0.764913	2.09
30.2182	0.203181	0.254557	4.51652	0.785133	0.691774	0.0551476	1.30233	-0.786081	-0.280479	1.56457	0.425352	-0.120766	-0.130709	-0.162409	-0.404437	-0.698132	0.274623	0.532587	0.576648	-0.130709	0.0934565	-0.111302	0.0378585	1.72332	-0.468469	0.00586183	0.562178	1.14917	-0.12647	-0.556676	0.534672	0.761727	2.09
30.2382	0.200858	0.252583	4.51642	0.785898	0.692339	0.0550614	1.29761	-0.784771	-0.282642	1.56222	0.423615	-0.12197	-0.130709	-0.162644	-0.40729	-0.698133	0.280658	0.535301	0.574516	-0.130709	0.0915479	-0.110014	0.0382529	1.72406	-0.468743	-0.000475282	0.558581	1.1536	-0.123961	-0.556504	0.538298	0.758718	2.09
30.2582	0.198434	0.2507	4.51627	0.786733	0.69292	0.0549555	1.29293	-0.78334	-0.28487	1.55972	0.421612	-0.123407	-0.130709	-0.162559	-0.410372	-0.698134	0.287283	0.53824	0.57216	-0.130709	0.0896858	-0.108595	0.0386112	1.72488	-0.46905	-0.00658	0.555013	1.15817	-0.121622	-0.556607	0.541819	0.755876	2.09
30.2782	0.195933	0.248928	4.5161	0.787643	0.693518	0.054825	1.28837	-0.78181	-0.287125	1.55706	0.419293	-0.125127	-0.130709	-0.162086	-0.413687	-0.698134	0.294565	0.541421	0.569597	-0.130709	0.0878892	-0.107061	0.0389164	1.72578	-0.469404	-0.0123744	0.551487	1.16285	-0.119398	-0.556953	0.545257	0.753185	2.09
30.2982	0.193385	0.24728	4.51592	0.788636	0.694131	0.0546652	1.28399	-0.780207	-0.289376	1.55424	0.416616	-0.127164	-0.130709	-0.161161	-0.417227	-0.698134	0.302572	0.544875	0.566829	-0.130709	0.0861745	-0.105437	0.0391611	1.72674	-0.469808	-0.0178391	0.547995	1.16759	-0.117234	-0.557497	0.548619	0.750637	2.09
30.3182	0.190813	0.245766	4.51572	0.789716	0.694762	0.054471	1.27982	-0.778544	-0.291603	1.55124	0.413552	-0.129541	-0.130709	-0.159722	-0.420981	-0.698133	0.311372	0.548641	0.563817	-0.130709	0.0845597	-0.103737	0.0393522	1.72772	-0.470257	-0.0229998	0.544527	1.17232	-0.115073	-0.55819	0.551892	0.748247	2.09
